<?xml version="1.0" encoding="utf-8"?>
<!-- Generator: Adobe Illustrator 21.1.0, SVG Export Plug-In . SVG Version: 6.00 Build 0)  -->
<svg version="1.1" id="Calque_1" xmlns="http://www.w3.org/2000/svg" xmlns:xlink="http://www.w3.org/1999/xlink" x="0px" y="0px"
	 viewBox="0 0 432 432" style="enable-background:new 0 0 432 432;" xml:space="preserve">
<style type="text/css">
	.st0{fill:#575756;}
	.st1{fill:#3AAA35;}
	.st2{fill:#00A19A;}
	.st3{fill:#1D71B8;}
	.st4{fill:#E94E1B;}
	.st5{fill:#3C3C3B;}
	.st6{fill:#F39200;}
	.st7{fill:#F9B233;}
	.st8{fill:#A288BF;}
	.st9{fill:#EF7D80;}
	.st10{fill:#F4A7A5;}
	.st11{fill:#48AE4D;}
	.st12{fill:#343434;}
	.st13{fill:#0D71B9;}
	.st14{fill:#DBB086;}
	.st15{fill:#020203;}
	.st16{fill:#CA9464;}
	.st17{fill:#24211E;}
	.st18{fill:#63B8A4;}
	.st19{fill:#95C11F;}
	.st20{fill:#2FAC66;}
	.st21{fill:#BE1622;}
	.st22{fill:#FED174;}
	.st23{fill:#F9B900;}
	.st24{fill:#B57D44;}
	.st25{fill:#BE8B5A;}
	.st26{fill:#9B6228;}
	.st27{fill:#FFFFFF;}
	.st28{fill:#2C2523;}
	.st29{fill:#13110C;}
	.st30{fill:#D21216;}
	.st31{fill:#F8AB00;}
	.st32{fill:#4AAD33;}
	.st33{fill:#6E3B11;}
	.st34{fill:#F5B0BB;}
	.st35{fill:#3B3835;}
	.st36{fill:#9D9D9C;}
	.st37{fill:#908C8B;}
	.st38{fill:#C079B1;}
	.st39{fill:#591D4D;}
	.st40{fill:#E7CEB1;}
	.st41{fill:#C69C6C;}
	.st42{fill:#754D24;}
	.st43{fill:#EBA0B0;}
	.st44{fill:#F2C4CC;}
	.st45{fill:#A67D52;}
	.st46{fill:#CC7C40;}
	.st47{fill:#EDAC80;}
	.st48{fill:#EECBB1;}
	.st49{fill:#DEB0D1;}
	.st50{fill:#4E4D4D;}
	.st51{fill:#97788E;}
	.st52{fill:#C7B29A;}
	.st53{fill:#1B1B1B;}
	.st54{fill:#F39323;}
	.st55{fill:#72C6D1;}
	.st56{fill:#91837B;}
	.st57{fill:#F0869F;}
	.st58{fill:#EE7302;}
	.st59{fill:#00AABE;}
	.st60{fill:#ACC4A8;}
	.st61{fill:#EACC36;}
	.st62{fill:#009245;}
	.st63{fill:#D3195B;}
	.st64{fill:#E2A23B;}
	.st65{fill:#F7C0CB;}
	.st66{fill:#D4ECF1;}
	.st67{fill:#F2F2F2;}
</style>
<g>
	<g>
		<g>
			<g>
				<path class="st52" d="M264.1,237.7c-0.9,0.4-1.8,0.9-2.7,1.3c1-2.9,7.1-19.8,9.5-26.5c-48,7.3-105.8-0.8-107.1-0.8
					c1.7,7,5.3,21.5,6.6,26c-1.4-0.8-2.8-1.5-4.2-2.3c-3.5-2-6.6,3.4-3.2,5.4c3.3,1.9,6.7,3.7,10,5.5c7.1,20.3,15,26.8,27.5,28.7
					c0,0.1,0,0.2,0,0.3c-0.5,1.8-0.6,3.8-0.8,5.8c-0.6,6.5-0.7,13-0.5,19.5c0.2,4,6.2,4,6.3,0c0.2-8.3,0.6-16.7,1.3-25
					c2.2,0.1,4.6,0.2,7.1,0.2c3.5,0,6.7,0,9.6-0.1c1.4,3.2,1,7.1,1,10.5c0.1,11.9-1,15.4,2.4,16.4c1.8,0.5,4-0.4,4-2.9
					c-0.1-5.7-0.1-11.4-0.2-17c0-2.7-0.2-5.1-0.8-7.4c16.5-1.6,21.3-7.5,28.7-28c2.9-1.4,5.8-2.7,8.7-4.1
					C270.9,241.4,267.8,236,264.1,237.7z"/>
				<g>
					<path class="st53" d="M225,258.9c-14.6,0.8-16.4-0.4-16.7,0.7c-0.5,10.1,16.7,13.8,17.7,0.4C226,259.4,225.5,258.9,225,258.9z"
						/>
					<g>
						<g>
							<path class="st53" d="M192.2,233.8c-4,0.3-6.6,1.2-5.6,16c0.3,4,1.5,15.2,7.5,15.1c6.4-0.1,6-12.1,5.9-16
								C199.6,245.1,198.5,233.4,192.2,233.8z"/>
							<g>
								<path class="st27" d="M193.4,251.4c-5.3,0.1-5.3,9.4,1.6,7C198.3,257.3,196.3,251.4,193.4,251.4z"/>
								<path class="st27" d="M195.3,258.9c-2.4,0-2.4,4.2,0.7,3.1C197.5,261.5,196.6,258.9,195.3,258.9z"/>
							</g>
						</g>
						<g>
							<path class="st53" d="M242.5,233.9c-4-0.3-6.7,0.1-8.1,14.9c-0.4,4-1,15.2,5,16.1c6.3,1,7.9-11,8.4-14.9
								C247.9,246.1,248.7,234.4,242.5,233.9z"/>
							<g>
								<path class="st27" d="M240.8,251.4c-5.2-0.8-6.7,8.4,0.5,7.1C244.7,258,243.6,251.9,240.8,251.4z"/>
								<path class="st27" d="M241.4,259.1c-2.4-0.3-3,3.8,0.2,3.2C243.2,262,242.7,259.3,241.4,259.1z"/>
							</g>
						</g>
					</g>
				</g>
				<path class="st13" d="M283.5,193.7c-0.2-2-0.8-4.3-2.2-5.9c3.7-5.5,1.2-13-4.9-16.4c-1.1-0.6-2.3-1.2-3.5-1.6
					c2-4,1.1-9.5-3.2-11.7c-9-4.4-18.5-6.3-28.3-7c1.3-5.5-1.9-10.8-6.9-13.9c3.7-6.8,0.9-16.5-17.4-19.4c-4.6-0.7-9.3,1.2-10.7,6.1
					c-0.5,1.9-0.2,4.2,0.7,6.2c-2.8,2.6-4.3,6.5-3.8,10.3c-18.2-2.4-22.8,10.6-18.9,18.1c-6.5,1.7-14,7.3-11.8,14.4
					c-9.7,0.8-17.9,4.4-18.3,14.1c-5.9,3-12.7,18.8,14.5,23.2c18,2.9,64.6,3.7,86.1,2.3c6.3-0.4,13.4-0.4,19.2-3.2
					C279.8,206.4,284.2,200.3,283.5,193.7z M158.3,196.7c-0.6,3-5.3,2.1-4.7-0.9C154.2,192.8,158.9,193.6,158.3,196.7z M170.6,200.4
					c-0.8,2.7-5,1.4-4.2-1.3C167.3,196.4,171.4,197.7,170.6,200.4z M166.4,182.6c0.2-3,4.7-2.7,4.6,0.2
					C170.8,185.8,166.2,185.5,166.4,182.6z M233.4,146.3c3.1-2.6,7,2.2,4,4.7C234.3,153.6,230.4,148.8,233.4,146.3z M229.5,134.2
					c2.3,3.1-2.6,6.6-4.9,3.5C222.3,134.6,227.2,131.1,229.5,134.2z M210.3,150c1,5.1-6.9,6.7-8,1.6
					C201.3,146.5,209.3,144.9,210.3,150z M179.1,166.9c2.4-2.4,6.1,1.3,3.7,3.7C180.4,173.1,176.6,169.3,179.1,166.9z M183.7,199.6
					c-3,0-3-4.6,0-4.6C186.6,195,186.6,199.6,183.7,199.6z M187.1,182.2c-3.6-1.7-0.9-7.3,2.7-5.6
					C193.4,178.3,190.7,183.9,187.1,182.2z M192,148.3c3-0.1,3.1,4.6,0.1,4.7C189.1,153,189,148.3,192,148.3z M194.7,160.9
					c4.4-2,7.5,4.9,3.1,6.9C193.4,169.8,190.3,162.9,194.7,160.9z M200.2,206.6c-4.9,1-6.4-6.5-1.6-7.5
					C203.5,198.1,205,205.6,200.2,206.6z M205.2,188c-4.1,2.3-7.7-4-3.6-6.4C205.7,179.3,209.3,185.7,205.2,188z M205.4,171.9
					c-1.4-4.9,6.2-7.1,7.6-2.2C214.4,174.7,206.8,176.8,205.4,171.9z M212.9,129.4c2.8-1.8,5.6,2.5,2.9,4.3
					C213,135.6,210.1,131.3,212.9,129.4z M222.6,154.5c2,4.7-5.4,7.8-7.4,3.1C213.3,152.9,220.6,149.8,222.6,154.5z M217,204
					c-2.1-1.9,0.8-5.2,3-3.3C222.1,202.6,219.1,205.9,217,204z M220.3,173c0.7-3.6,6.2-2.4,5.5,1.1
					C225.1,177.7,219.6,176.6,220.3,173z M225.6,191.7c-4.2,0.5-4.9-6-0.7-6.5C229.1,184.8,229.8,191.3,225.6,191.7z M228.9,161.7
					c-1.9-2.9,2.6-5.9,4.6-3C235.4,161.6,230.9,164.6,228.9,161.7z M235.2,175.7c-2.3-4.1,4.1-7.7,6.4-3.6
					C243.9,176.3,237.5,179.8,235.2,175.7z M237.7,204.6c0.1-3.8,6-3.5,5.8,0.2C243.4,208.6,237.5,208.4,237.7,204.6z M246.7,187.8
					c-1.2,4.6-8.3,2.6-7.1-1.9C240.8,181.3,247.9,183.2,246.7,187.8z M244.1,160.5c-0.6-3.6,5-4.6,5.6-0.9
					C250.3,163.2,244.7,164.1,244.1,160.5z M254.6,170.2c0.5-3,5.1-2.2,4.6,0.8C258.6,174,254.1,173.2,254.6,170.2z M255.8,201.3
					c-1.4-3.3,3.7-5.4,5.1-2.1C262.2,202.4,257.1,204.5,255.8,201.3z M261.1,187.6c-3.2,1.3-5.2-3.6-2-4.9
					C262.3,181.4,264.3,186.3,261.1,187.6z M262.7,164.8c-1.5-4.5,5.5-6.9,7-2.3C271.2,167,264.2,169.3,262.7,164.8z M274.9,203.1
					c-3.8,1.5-6.1-4.3-2.4-5.8C276.3,195.7,278.6,201.5,274.9,203.1z M272.4,185.3c-4.1-1.7-1.4-8,2.7-6.3
					C279.2,180.7,276.5,187,272.4,185.3z"/>
			</g>
			<g>
				<path class="st54" d="M321,78.9c-5.6-9.8-17.7-16.8-29.5-13.1c-0.1,0-0.1,0-0.2,0.1c-10.3,3.5-15.5,13.7-15.1,23.6
					c0.4,10.6,6.9,21.4,17.3,25.9c4.8,2.1,10.1,2.5,14.9,1.3c0.7,1.2-0.1,3.2-1.3,4.2c-0.3,0.2-0.1,0.7,0.3,0.8
					c0.9,0.1,1.7-0.1,2.3-0.7c0.1-0.1,0.5-0.8,0.6-0.8c0.8-0.3,0.6,0.1,1.1,0.4c0.4,0.3,0.9,0.3,1.3,0c0.4-0.4,0.3-0.8,0.2-1.3
					c0.5,0.3,1,0.8,1.6,0.6c0.6-0.2,0.9-0.9,0.7-1.4c-0.3-0.8-1.2-1-1.9-1.2c-0.9-0.2-1.5-0.7-2.1-1.4c3.5-1.4,6.6-3.7,9-6.9
					C326.7,100,326.2,88.1,321,78.9z"/>
				<g>
					<path class="st50" d="M244,140.2c0.6-2.1-1.6-3.1-3.1-3.6c-1.8-0.6-3.7-0.9-5.6-1.1c-2.5-0.3-5.1-0.3-7.5-0.5
						c-6-0.3-12-0.3-17.9,0.2c-0.4,0-1.1,0.1-1.9,0.2c-1.1,0.1-2.5,0.3-4,0.6c-0.1,0-0.2,0-0.4,0.1c-3.2,0.7-6.4,1.9-6,4
						c0.7,0,1.5-0.1,2.3,0c0-0.2,0.2-0.5,0.6-0.9c0.5-0.4,1.5-0.8,2.9-1.1c1.1-0.2,2.4-0.5,3.9-0.6c1.5-0.2,3.3-0.3,5.1-0.5
						c7.3-0.5,16.3-0.3,22.4,0.3c4.3,0.5,7.3,1.2,7.2,2.2c0,0.7-1.5,1-3.4,1.1c0.5,0.6,1,1.2,1.4,1.9
						C241.5,142.3,243.5,141.8,244,140.2z"/>
					<path class="st50" d="M203.6,135.9c0.2-0.7,0.5-1.4,0.8-2.1c-1.8-1-4-2.5-3.5-4.5c0.5-2.2,2.7-3.5,5.3-4.3
						c4.3-1.3,9.9-1.3,12.4-1.5c3.6-0.3,9.3-1,13.4,0.2c0.9,0.3,1.7,0.6,2.5,1.1c1.5,1,1.2,1.8,0.3,2.4c0.3,0.6,0.6,1.3,0.8,2
						c3.3-2,2.4-5.8-2.4-7.1c-1.5-0.4-3.2-0.7-4.8-0.9c-5.8-0.6-12,0.3-17.4,1.1c-1.2,0.2-2.7,0.4-4.2,0.8c-3.2,0.8-6.5,2.3-7.7,5.3
						C197.8,131.7,200.4,134.2,203.6,135.9z"/>
					<path class="st50" d="M310.5,123.9c-1.2,10.4-12.1,13.5-20.5,16.2c-10.1,3.2-20.4,5.7-30.9,7.4c-5.8,0.9-11.7,1.7-17.6,2
						c0,0.5-0.1,1.1-0.2,1.6c1.2,0.1,2.3,0.2,3.5,0.3c13.8-1,27.5-3.8,40.8-7.7c10.7-3.1,25.6-6.6,27.1-19.8
						C312.8,122.6,310.7,122.6,310.5,123.9z"/>
				</g>
			</g>
		</g>
		<g>
			<path class="st54" d="M142.1,240.4c-7.9-13.9-25-23.7-41.8-18.6c-0.1,0-0.2,0-0.3,0.1c-14.6,5-21.9,19.4-21.4,33.4
				c0.6,15,9.8,30.2,24.5,36.7c6.8,3,14.3,3.5,21.1,1.9c1,1.7-0.2,4.5-1.8,5.9c-0.4,0.3-0.1,1,0.4,1.1c1.3,0.1,2.4-0.1,3.3-1
				c0.1-0.1,0.7-1.1,0.9-1.2c1.1-0.5,0.9,0.2,1.5,0.6c0.6,0.4,1.3,0.5,1.9-0.1c0.6-0.5,0.4-1.1,0.3-1.8c0.7,0.5,1.4,1.1,2.3,0.8
				c0.9-0.3,1.2-1.2,1-2c-0.4-1.2-1.6-1.4-2.7-1.7c-1.3-0.3-2.2-1.1-2.9-1.9c5-2,9.4-5.2,12.7-9.7
				C150.3,270.2,149.6,253.4,142.1,240.4z"/>
			<path class="st54" d="M327.7,295.2c15.1-5.4,27.6-20.6,25.4-38c0-0.1,0-0.2,0-0.3c-2.4-15.2-15.4-24.9-29.3-26.8
				c-14.9-2-31.5,4.5-40.3,18c-4.1,6.2-5.9,13.4-5.4,20.4c-1.9,0.7-4.4-0.9-5.5-2.7c-0.3-0.4-1-0.3-1.1,0.2
				c-0.3,1.2-0.3,2.4,0.4,3.4c0.1,0.2,1,0.9,1,1c0.3,1.1-0.3,0.8-0.9,1.4c-0.5,0.5-0.7,1.2-0.2,1.9c0.4,0.6,1.1,0.6,1.7,0.6
				c-0.6,0.6-1.3,1.2-1.2,2.1c0.1,0.9,1,1.4,1.8,1.3c1.2-0.2,1.7-1.4,2.2-2.4c0.6-1.2,1.4-2,2.4-2.5c1.1,5.2,3.6,10.1,7.4,14.2
				C296.8,298.2,313.6,300.3,327.7,295.2z"/>
		</g>
	</g>
	<g>
		<path class="st53" d="M68.2,345.3c2.6-0.6,5.1-1.1,7.6-1.7c1.1-0.2,2.2-0.5,3.4-0.7c0.8-0.1,1-0.5,0.9-1.2
			c-0.2-2.3-0.5-4.5-0.6-6.8c-0.5-6.1-0.4-12.2-0.4-18.2c0-2,0.1-4-0.2-6c-0.1-0.5,0-1,0.2-1.4c0.4-1,1.1-1.5,2.1-1.6
			c1,0,1.7,0.5,2.2,1.4c0.3,0.6,0.3,1.3,0.3,1.9c0,4,0.1,8,0.1,12.1c0,7.2,0.6,14.3,1.4,21.4c0.3,2.5,0.6,5.1,0.9,7.6
			c0.2,1.6-0.6,2.8-2,3c-1.3,0.2-2.5-0.9-2.8-2.4c-0.2-1.3-0.3-2.7-0.5-4c-0.2-1.1-0.3-1.2-1.4-0.9c-1.7,0.3-3.4,0.7-5.1,1.1
			c-1.5,0.3-3,0.8-4.6,1.1c-0.7,0.2-1,0.4-0.9,1.2c0.4,3.4,0.9,6.8,1.8,10.1c0.1,0.5,0.3,1.1,0.2,1.6c-0.1,1-0.8,1.9-1.7,2.2
			c-1,0.2-2-0.1-2.6-1c-0.3-0.5-0.5-1.1-0.6-1.7c-1.1-4.4-1.7-9-2.2-13.5c-0.8-5.9-1.3-11.8-1.6-17.7c-0.3-6.1-0.2-12.3,0.8-18.4
			c0.1-0.5,0.2-1.1,0.5-1.5c0.6-0.9,1.5-1.2,2.6-1c1,0.2,1.7,1,1.7,2.1c0,0.6-0.1,1.3-0.2,1.9c-1,7.1-0.8,14.2-0.4,21.3
			c0.2,2.8,0.5,5.5,0.7,8.3C68.1,344.2,68.2,344.7,68.2,345.3z"/>
		<path class="st53" d="M109.2,362.1c0,1.4-0.5,2.1-1.5,2.5c-0.9,0.4-1.9,0.2-2.6-0.7c-0.5-0.6-0.8-1.2-0.9-2
			c-0.4-3.7-1.2-7.4-1.7-11.1c-0.1-0.7-0.3-1-1.1-0.9c-2.5,0.3-5,0.5-7.4,0.7c-0.7,0.1-0.8,0.6-0.9,1.2c-0.1,1.2-0.3,2.5-0.4,3.7
			c-0.1,1.4-0.3,2.8-0.4,4.2c0,0.2,0,0.3,0,0.5c-0.3,1.5-1.4,2.4-2.8,2.2c-1.2-0.2-2.1-1.3-2-2.7c0.2-2.2,0.4-4.3,0.7-6.5
			c0.6-4.3,0.8-8.6,1.3-13c0.9-8.9,2.4-17.7,4.6-26.4c0.2-0.8,0.5-1.7,1-2.4c1.2-1.6,3.2-1.6,4.5-0.1c0.7,0.8,1,1.7,1.3,2.6
			c1.2,3.7,2,7.5,2.6,11.3c1.7,10.6,3.3,21.1,4.9,31.7c0.2,1.4,0.5,2.9,0.8,4.3C109,361.5,109.1,361.9,109.2,362.1z M97.2,320.3
			c-1.8,8.1-2.8,16.2-3.6,24.4c-0.1,1,0.1,1.1,1.1,1.1c1.7-0.1,3.3-0.3,5-0.4c1.8-0.2,1.8-0.2,1.5-2.1c-0.1-0.5-0.2-1.1-0.3-1.6
			c-1.1-6.7-1.9-13.5-3.3-20.2C97.7,321.1,97.7,320.7,97.2,320.3z"/>
		<path class="st53" d="M132.7,329.7c0,8.1-5.9,15.3-13.7,16.9c-2.4,0.5-2.4,0.5-2.1,3c0.2,1.7,0.4,3.3,0.6,5
			c0.1,0.7,0.1,1.3-0.2,1.9c-0.5,0.9-1.4,1.4-2.5,1.2c-1.1-0.2-2-1.2-2.1-2.4c-0.2-1.7-0.3-3.5-0.5-5.2c-0.8-7.8-1-15.7-1.4-23.6
			c-0.2-2.6-0.2-5.2-0.3-7.8c-0.1-2.6,1.5-4.8,4.3-4.8c4.7-0.1,9,0.9,12.7,3.8c2.9,2.2,4.2,5.4,5,8.9
			C132.6,327.8,132.7,328.9,132.7,329.7z M115.3,323.8C115.3,323.8,115.3,323.8,115.3,323.8c0.2,4.7,0.5,9.4,0.7,14.1
			c0.1,1,0.1,2.1,0.2,3.1c0.1,1.1,0.3,1.2,1.3,1c7-1.3,11.5-8,10.2-14.3c-0.5-2.5-1.4-4.9-3.6-6.5c-2.3-1.7-5.1-2.2-7.9-2.6
			c-0.7-0.1-1.1,0.2-1,1C115.2,321,115.2,322.4,115.3,323.8z"/>
		<path class="st53" d="M156.1,329.7c0,8.1-5.9,15.3-13.7,16.9c-2.4,0.5-2.4,0.5-2.1,3c0.2,1.7,0.4,3.3,0.6,5
			c0.1,0.7,0.1,1.3-0.2,1.9c-0.5,0.9-1.4,1.4-2.5,1.2c-1.1-0.2-2-1.2-2.1-2.4c-0.2-1.7-0.3-3.5-0.5-5.2c-0.8-7.8-1-15.7-1.4-23.6
			c-0.2-2.6-0.2-5.2-0.3-7.8c-0.1-2.6,1.5-4.8,4.3-4.8c4.7-0.1,9,0.9,12.7,3.8c2.9,2.2,4.2,5.4,5,8.9
			C156.1,327.8,156.2,328.9,156.1,329.7z M138.8,323.8C138.8,323.8,138.8,323.8,138.8,323.8c0.2,4.7,0.5,9.4,0.7,14.1
			c0.1,1,0.1,2.1,0.2,3.1c0.1,1.1,0.3,1.2,1.3,1c7-1.3,11.5-8,10.2-14.3c-0.5-2.5-1.4-4.9-3.6-6.5c-2.3-1.7-5.1-2.2-7.9-2.6
			c-0.7-0.1-1.1,0.2-1,1C138.7,321,138.7,322.4,138.8,323.8z"/>
		<path class="st53" d="M167.8,329.2c0.7-0.5,0.8-1,1-1.5c2.3-4.6,4.6-9.1,7-13.6c0.2-0.4,0.4-0.9,0.7-1.3c0.8-0.9,1.9-1.2,2.9-0.6
			c1,0.5,1.5,1.7,1.1,2.8c-0.1,0.4-0.3,0.8-0.5,1.2c-2.9,5.3-5.4,10.9-8.4,16.2c-1.2,2.1-1.5,4.2-1.5,6.5c-0.1,5.6,0,11.3,0.2,16.9
			c0.1,1.6,0.3,3.1,0.3,4.7c0,1.6-1.4,2.6-2.9,2.2c-1-0.2-1.7-1-1.8-2.2c-0.3-3.4-0.5-6.8-0.5-10.2c0-4.7,0-9.5,0-14.2
			c0-1.2-0.3-2.3-1-3.3c-1.8-2.5-3.3-5.2-4.8-7.9c-1.6-2.9-3.3-5.7-5-8.6c-0.2-0.4-0.5-0.7-0.6-1.2c-0.3-1.1,0.1-2.2,1-2.7
			c0.9-0.6,2.2-0.4,3,0.5c0.6,0.7,1.1,1.5,1.6,2.3c2,3.4,3.9,6.8,5.9,10.1C166.2,326.5,167,327.8,167.8,329.2z"/>
		<path class="st53" d="M213.4,342.3c1.5,0.7,3,1.5,4.2,2.6c5.2,4.8,5.2,12.7,0,17.8c-2.8,2.7-6,4.1-9.9,4.5
			c-2.3,0.2-3.6-0.8-3.9-3.1c-0.5-3.8-0.8-7.7-1-11.5c-0.7-12.3-0.9-24.6-0.5-37c0-1.2,0.2-2.5,0.3-3.7c0.2-1.5,1.1-2.4,2.5-2.6
			c6.6-0.8,14.5,3.2,17.3,9.1c2.1,4.5,1.6,8.9-0.4,13.2c-1.7,3.7-4.2,6.9-7.4,9.6c-0.3,0.3-0.7,0.6-1,0.8
			C213.5,342,213.5,342.1,213.4,342.3z M207.1,340.7c1.7-1.1,3.1-2.1,4.4-3.2c3-2.6,5.4-5.7,6.7-9.4c0.8-2.3,1.1-4.7,0.1-7
			c-1.9-4.4-5.7-6.3-10.2-7.1c-0.8-0.1-1,0.2-1.1,1c-0.1,2.8-0.2,5.6-0.3,8.5C206.8,329.1,206.8,334.7,207.1,340.7z M208.5,362.2
			c2.8-0.5,5-1.7,6.6-3.9c1.2-1.6,1.9-3.4,1.7-5.5c-0.6-4.7-5-6.9-8.6-6.6c-0.8,0.1-0.9,0.4-0.8,1.1c0.2,3.4,0.3,6.8,0.6,10.2
			C208,359.1,207.9,360.7,208.5,362.2z"/>
		<path class="st53" d="M229.9,314.3c-0.4,11.8-0.2,23.6,0,35.4c0,2.3,0.3,4.6,0.4,6.8c0,0.3,0.1,0.6,0.1,1c0,1.3-0.8,2.4-2.1,2.5
			c-1.2,0.2-2.5-0.8-2.7-2.1c-0.2-1.1-0.2-2.3-0.3-3.4c-0.4-5.6-0.4-11.2-0.4-16.8c-0.1-8.4-0.1-16.7,0.1-25.1c0-0.2,0-0.4,0-0.7
			c0.1-1.4,1-2.3,2.2-2.4c1.1-0.1,2.1,0.7,2.4,2C230,312.4,229.9,313.4,229.9,314.3z"/>
		<path class="st53" d="M241.6,346.2c1.8,1.4,3.6,2.9,5.4,4.2c1.1,0.8,2.2,1.6,3.3,2.4c0.7,0.5,1.3,1.2,1.3,2.2c0,1.6-1.5,2.7-3,2.2
			c-0.6-0.2-1.1-0.5-1.5-0.9c-2.4-1.9-4.8-3.7-7.2-5.6c-0.4-0.3-0.8-0.5-1.4-1c0,2,0.1,3.8,0.7,5.5c0.3,0.9,0.4,1.8,0,2.7
			c-0.4,1.1-1.3,1.7-2.3,1.7c-1,0-2-0.7-2.2-1.8c-0.3-1.4-0.5-2.9-0.6-4.3c-1-8.8-1.4-17.6-1.9-26.5c-0.1-2.5-0.1-5.1-0.1-7.7
			c0-0.5,0-1.1-0.1-1.6c-0.4-1.7,0.2-2.9,1.9-3.3c2.3-0.6,4.6-0.9,6.9-0.6c2.9,0.3,5.8,0.9,8.5,2.1c4,1.9,6.9,4.7,8.2,9
			c1.5,5.3,0.1,9.8-3.4,13.9c-2.6,2.9-5.8,4.8-9.4,6.2C243.5,345.4,242.6,345.6,241.6,346.2z M236.6,325.3c0,2.9,0.4,5.9,0.5,8.8
			c0.1,2.4,0.3,4.8,0.4,7.1c0.1,1,0.2,1.1,1.2,0.8c2.3-0.7,4.5-1.5,6.7-2.6c2.3-1.2,4.4-2.8,5.9-5c3.4-5,2-10.7-3.2-13.6
			c-3.2-1.8-6.7-2.4-10.4-2.2c-1.1,0.1-1.1,0.1-1.1,1.3C236.6,321.7,236.6,323.5,236.6,325.3z"/>
		<path class="st53" d="M266.2,313.9c2.5,0,5,0,7.5,0c0.5,0,1.1,0,1.6,0.2c1.3,0.4,2,1.3,1.9,2.5c-0.1,1.1-1,2-2.3,2.1
			c-1.3,0.1-2.6,0-3.9-0.1c-2.8,0-2.8,0-2.8,2.7c0.1,4.6,0.1,9.2,0.3,13.8c0.4,6.9,1,13.7,2,20.6c0.1,0.9,0.3,1.8,0.4,2.7
			c0.2,1.6-0.8,2.8-2.2,2.9c-1.2,0.1-2.6-1-2.7-2.5c-0.4-4-0.9-8-1.4-12c-0.5-4.3-0.7-8.6-0.9-13c-0.3-4.7-0.1-9.3-0.3-14
			c0-1.5-0.1-1.5-1.6-1.5c-1.6,0.1-3.1,0.2-4.7,0.3c-0.9,0.1-1.6-0.1-2.2-0.7c-1.2-1.3-0.6-3.3,1.2-3.9c1.1-0.3,2.2-0.4,3.4-0.4
			C261.8,313.8,264,313.8,266.2,313.9C266.2,313.8,266.2,313.8,266.2,313.9z"/>
		<path class="st53" d="M284.5,345.3c2.6-0.6,5.1-1.1,7.6-1.7c1.1-0.2,2.2-0.5,3.4-0.7c0.8-0.1,1-0.5,0.9-1.2
			c-0.2-2.3-0.5-4.5-0.6-6.8c-0.5-6.1-0.4-12.2-0.4-18.2c0-2,0.1-4-0.2-6c-0.1-0.5,0-1,0.2-1.4c0.4-1,1.1-1.5,2.1-1.6
			c1,0,1.7,0.5,2.2,1.4c0.3,0.6,0.3,1.3,0.3,1.9c0,4,0.1,8,0.1,12.1c0,7.2,0.6,14.3,1.4,21.4c0.3,2.5,0.6,5.1,0.9,7.6
			c0.2,1.6-0.6,2.8-2,3c-1.3,0.2-2.5-0.9-2.8-2.4c-0.2-1.3-0.3-2.7-0.5-4c-0.2-1.1-0.3-1.2-1.4-0.9c-1.7,0.3-3.4,0.7-5.1,1.1
			c-1.5,0.3-3,0.8-4.6,1.1c-0.7,0.2-1,0.4-0.9,1.2c0.4,3.4,0.9,6.8,1.8,10.1c0.1,0.5,0.3,1.1,0.2,1.6c-0.1,1-0.8,1.9-1.7,2.2
			c-1,0.2-2-0.1-2.6-1c-0.3-0.5-0.5-1.1-0.6-1.7c-1.1-4.4-1.7-9-2.2-13.5c-0.8-5.9-1.3-11.8-1.6-17.7c-0.3-6.1-0.2-12.3,0.8-18.4
			c0.1-0.5,0.2-1.1,0.5-1.5c0.6-0.9,1.5-1.2,2.6-1c1,0.2,1.7,1,1.7,2.1c0,0.6-0.1,1.3-0.2,1.9c-1,7.1-0.8,14.2-0.4,21.3
			c0.2,2.8,0.5,5.5,0.7,8.3C284.3,344.2,284.4,344.7,284.5,345.3z"/>
		<path class="st53" d="M325.6,335.2c-0.1,9.4-4,16.9-11.3,22.8c-0.6,0.5-1.2,0.9-1.8,1.4c-0.8,0.7-1.8,0.9-2.9,1
			c-1.6,0.1-2.7-1-2.8-2.5c-0.8-9.1-1.6-18.2-2.3-27.4c-0.4-5.1-0.6-10.2-0.9-15.3c0-0.7,0.1-1.4,0.3-2.1c0.4-1,1.1-1.6,2.2-1.7
			c1.2-0.2,2.4-0.1,3.5,0.3c8.4,2.4,13.3,8.1,15.2,16.6C325.3,330.6,325.7,332.9,325.6,335.2z M311.3,354c0.6-0.1,0.9-0.4,1.1-0.6
			c5.3-4.6,8.2-10.4,8.5-17.5c0.1-3.8-0.5-7.5-2-11c-1.9-4.2-5.1-6.9-9.4-8.4c-0.9-0.3-1-0.2-1,0.7c0,0.9,0.1,1.7,0.2,2.6
			c0.3,4.2,0.5,8.5,0.8,12.7c0.3,4.4,0.7,8.8,1.1,13.1C310.8,348.4,311,351.2,311.3,354z"/>
		<path class="st53" d="M348.6,362.1c0,1.4-0.5,2.1-1.5,2.5c-0.9,0.4-1.9,0.2-2.6-0.7c-0.5-0.6-0.8-1.2-0.9-2
			c-0.4-3.7-1.2-7.4-1.7-11.1c-0.1-0.7-0.3-1-1.1-0.9c-2.5,0.3-5,0.5-7.4,0.7c-0.7,0.1-0.8,0.6-0.9,1.2c-0.1,1.2-0.3,2.5-0.4,3.7
			c-0.1,1.4-0.3,2.8-0.4,4.2c0,0.2,0,0.3,0,0.5c-0.3,1.5-1.4,2.4-2.8,2.2c-1.2-0.2-2.1-1.3-2-2.7c0.2-2.2,0.4-4.3,0.7-6.5
			c0.6-4.3,0.8-8.6,1.3-13c0.9-8.9,2.4-17.7,4.6-26.4c0.2-0.8,0.5-1.7,1-2.4c1.2-1.6,3.2-1.6,4.5-0.1c0.7,0.8,1,1.7,1.3,2.6
			c1.2,3.7,2,7.5,2.6,11.3c1.7,10.6,3.3,21.1,4.9,31.7c0.2,1.4,0.5,2.9,0.8,4.3C348.5,361.5,348.6,361.9,348.6,362.1z M336.6,320.3
			c-1.8,8.1-2.8,16.2-3.6,24.4c-0.1,1,0.1,1.1,1.1,1.1c1.7-0.1,3.3-0.3,5-0.4c1.8-0.2,1.8-0.2,1.5-2.1c-0.1-0.5-0.2-1.1-0.3-1.6
			c-1.1-6.7-1.9-13.5-3.3-20.2C337.1,321.1,337.2,320.7,336.6,320.3z"/>
		<path class="st53" d="M356.9,329.2c0.7-0.5,0.8-1,1-1.5c2.3-4.6,4.6-9.1,7-13.6c0.2-0.4,0.4-0.9,0.7-1.3c0.8-0.9,1.9-1.2,2.9-0.6
			c1,0.5,1.5,1.7,1.1,2.8c-0.1,0.4-0.3,0.8-0.5,1.2c-2.9,5.3-5.4,10.9-8.4,16.2c-1.2,2.1-1.5,4.2-1.5,6.5c-0.1,5.6,0,11.3,0.2,16.9
			c0.1,1.6,0.3,3.1,0.3,4.7c0,1.6-1.4,2.6-2.9,2.2c-1-0.2-1.7-1-1.8-2.2c-0.3-3.4-0.5-6.8-0.5-10.2c0-4.7,0-9.5,0-14.2
			c0-1.2-0.3-2.3-1-3.3c-1.8-2.5-3.3-5.2-4.8-7.9c-1.6-2.9-3.3-5.7-5-8.6c-0.2-0.4-0.5-0.7-0.6-1.2c-0.3-1.1,0.1-2.2,1-2.7
			c0.9-0.6,2.2-0.4,3,0.5c0.6,0.7,1.1,1.5,1.6,2.3c2,3.4,3.9,6.8,5.9,10.1C355.3,326.5,356.1,327.8,356.9,329.2z"/>
	</g>
</g>
</svg>
